<?xml version="1.0" standalone="no"?>
<!DOCTYPE svg PUBLIC "-//W3C//DTD SVG 20010904//EN"
 "http://www.w3.org/TR/2001/REC-SVG-20010904/DTD/svg10.dtd">
<svg version="1.0" xmlns="http://www.w3.org/2000/svg"
 width="447.000000pt" height="559.000000pt" viewBox="0 0 447.000000 559.000000"
 preserveAspectRatio="xMidYMid meet">

<g transform="translate(0.000000,559.000000) scale(0.100000,-0.100000)"
fill="#000000" stroke="none">
<path d="M1746 4714 c-68 -22 -89 -35 -143 -87 -92 -88 -117 -145 -118 -267
-1 -73 -5 -101 -18 -121 -38 -57 -14 -166 53 -251 28 -34 30 -43 30 -118 0
-125 -28 -158 -226 -259 -44 -23 -108 -64 -142 -91 -38 -31 -81 -55 -115 -65
-64 -18 -135 -63 -173 -108 -44 -52 -83 -146 -94 -229 -8 -56 -24 -105 -60
-182 -59 -124 -80 -198 -80 -281 0 -68 -24 -272 -45 -385 -10 -57 -12 -113 -6
-235 9 -183 21 -234 91 -406 28 -68 50 -124 50 -125 0 -1 -24 0 -52 3 -51 5
-55 3 -87 -31 -26 -27 -43 -36 -67 -36 -44 0 -77 -41 -106 -131 -16 -51 -29
-74 -44 -79 -12 -5 -24 -16 -28 -25 -11 -29 -6 -84 8 -92 9 -6 15 -38 18 -105
6 -108 21 -143 69 -161 16 -6 33 -24 40 -40 17 -41 47 -57 121 -64 62 -5 65
-5 90 25 27 32 84 160 94 212 8 39 30 38 38 -2 8 -40 33 -68 61 -68 13 0 28
-6 34 -14 16 -19 88 -30 224 -35 36 -1 37 -2 37 -41 0 -25 5 -40 13 -40 12 0
173 65 282 115 65 29 131 57 380 158 88 36 239 98 335 139 96 41 228 96 293
123 65 26 120 51 122 56 6 8 -69 238 -92 283 -8 17 -21 38 -27 46 -7 8 -18 44
-25 80 -7 36 -18 71 -26 79 -8 8 -11 27 -8 50 3 20 -4 75 -16 123 -24 103 -37
218 -25 218 5 0 33 -45 62 -100 61 -114 85 -145 139 -183 l38 -26 121 9 c142
11 186 27 331 121 51 33 98 57 103 54 19 -12 150 -45 178 -45 37 0 135 63 151
97 8 15 16 57 19 93 l5 65 70 51 70 51 48 -30 c70 -43 124 -46 189 -11 50 27
80 65 80 100 0 9 10 33 22 52 24 39 29 134 10 184 -8 19 -8 35 1 57 10 26 8
34 -9 58 -12 16 -31 29 -43 31 -13 2 -40 21 -61 42 -48 48 -87 69 -153 82
-111 21 -129 20 -182 -9 -67 -38 -90 -80 -90 -163 0 -40 -5 -70 -13 -79 -7 -7
-10 -22 -6 -33 4 -14 -4 -28 -33 -52 l-38 -34 -50 46 c-56 50 -116 81 -158 82
-34 0 -115 -40 -143 -72 -37 -40 -67 -162 -61 -242 l6 -68 -32 8 c-18 4 -65 9
-106 10 -48 2 -77 7 -82 16 -5 7 -8 51 -8 98 0 105 -25 192 -80 278 -37 56
-39 65 -34 114 9 88 -13 225 -46 293 -58 118 -129 175 -261 211 -44 12 -79 30
-108 55 -23 20 -76 59 -117 85 -41 27 -75 54 -75 61 0 7 25 61 56 120 40 76
65 141 84 218 15 61 39 135 53 167 l25 56 -29 34 c-15 18 -28 36 -29 40 0 4
20 5 45 1 83 -11 119 42 80 117 -17 34 -69 75 -112 90 -25 9 -32 20 -48 72
-24 80 -69 129 -160 174 -100 49 -171 54 -279 18z m229 -15 c114 -43 178 -107
201 -201 l6 -27 -104 6 c-144 8 -265 -24 -376 -98 -29 -20 -44 -25 -47 -16 -3
6 -9 62 -13 122 -9 102 -9 104 -10 35 0 -41 3 -99 7 -127 l7 -53 -47 -40 c-54
-46 -74 -53 -38 -14 23 26 23 26 2 15 -12 -6 -26 -19 -32 -29 -18 -31 -26 -1
-25 91 1 108 19 155 88 227 56 59 88 80 161 107 77 28 149 29 220 2z m180
-247 c75 -12 113 -31 153 -76 36 -41 48 -74 33 -89 -8 -8 -11 -2 -11 20 0 67
-91 132 -185 133 -60 0 -122 -27 -227 -99 -74 -50 -139 -73 -181 -64 -72 17
-97 25 -97 32 0 11 135 96 184 116 106 44 183 51 331 27z m-165 -182 c0 -5
-12 -10 -27 -9 -25 0 -26 1 -8 9 27 12 35 12 35 0z m50 -5 c0 -8 -7 -15 -15
-15 -8 0 -15 7 -15 15 0 8 7 15 15 15 8 0 15 -7 15 -15z m76 0 c-26 -20 -66
-19 -66 0 0 11 11 15 43 15 39 -1 41 -2 23 -15z m-565 -57 l22 -33 -29 26
c-16 15 -36 29 -44 32 -10 4 -8 6 7 6 14 1 30 -11 44 -31z m409 2 c0 -5 -4
-10 -10 -10 -5 0 -10 5 -10 10 0 6 5 10 10 10 6 0 10 -4 10 -10z m275 -30 c0
-7 -6 -15 -12 -17 -8 -3 -13 4 -13 17 0 13 5 20 13 18 6 -3 12 -11 12 -18z
m-190 -84 c12 -40 19 -78 17 -85 -5 -14 -37 -14 -63 -1 -16 9 -17 15 -8 31 6
11 9 35 8 52 -7 102 19 104 46 3z m-468 -8 c-3 -7 -5 -2 -5 12 0 14 2 19 5 13
2 -7 2 -19 0 -25z m146 -12 c3 -8 26 -22 52 -31 37 -15 54 -16 91 -8 24 6 44
7 44 4 0 -3 -28 -19 -61 -36 -73 -35 -95 -63 -83 -102 l8 -28 4 27 c2 20 20
41 63 73 35 26 59 39 59 31 0 -12 81 -86 94 -86 4 0 24 11 46 25 22 14 44 25
49 25 5 0 18 -18 29 -41 18 -36 21 -38 27 -19 5 15 1 29 -13 43 -11 12 -27 37
-36 55 -17 33 -17 33 3 23 11 -6 38 -11 61 -11 38 0 41 -2 35 -22 -25 -82 -34
-116 -39 -138 -3 -14 -12 -34 -21 -45 -9 -11 -13 -14 -9 -6 4 9 3 12 -3 8 -6
-4 -16 -28 -23 -54 -23 -84 -36 -103 -67 -96 -16 3 -37 5 -48 4 -79 -7 -89 -3
-135 47 -55 62 -96 141 -111 215 -7 31 -16 54 -20 51 -14 -8 -10 -92 6 -131
24 -56 10 -50 -19 8 -29 59 -32 85 -12 112 11 14 11 26 4 52 -11 34 -6 65 11
65 5 0 11 -6 14 -14z m-152 -36 c11 0 11 -2 -1 -10 -10 -6 -11 -10 -2 -10 6 0
12 -7 12 -15 0 -19 -24 -20 -39 -1 -9 11 -9 15 1 19 10 4 11 7 1 18 -7 7 -13
18 -13 24 0 5 7 2 14 -7 7 -10 19 -18 27 -18z m394 -10 c3 -5 -3 -10 -15 -10
-12 0 -18 5 -15 10 3 6 10 10 15 10 5 0 12 -4 15 -10z m-314 -162 c10 -27 17
-48 14 -48 -10 0 -34 58 -39 95 -3 22 -3 31 1 20 3 -11 14 -41 24 -67z m-62
-95 c-2 -77 -2 -77 -8 -23 -7 51 -4 100 5 100 2 0 3 -35 3 -77z m-52 -76 c-14
-18 -58 -50 -98 -71 -92 -48 -165 -96 -202 -131 -17 -16 -36 -25 -50 -23 -19
3 -14 9 34 43 30 22 102 65 158 95 61 33 118 71 139 95 43 46 56 40 19 -8z
m154 -29 c23 -40 59 -91 80 -113 20 -22 52 -69 69 -105 18 -36 42 -78 53 -94
l20 -28 -39 25 c-45 29 -236 64 -394 73 -106 5 -220 24 -220 35 0 27 211 159
255 159 29 0 26 -27 -10 -94 -36 -65 -34 -85 4 -47 11 11 27 34 36 52 21 40
34 25 36 -41 1 -43 1 -43 10 -15 5 17 14 66 21 110 6 44 16 83 22 87 6 4 9 21
8 38 -2 16 -1 30 2 30 3 0 24 -33 47 -72z m455 -159 c39 -26 89 -64 110 -84
29 -27 49 -38 81 -41 108 -10 208 -89 265 -209 31 -66 33 -77 35 -190 l2 -120
-13 92 c-15 103 -25 147 -31 141 -3 -3 -1 -25 3 -49 5 -24 5 -55 2 -69 -7 -24
-7 -24 -26 15 -28 59 -101 161 -129 179 -14 9 -25 25 -25 36 0 21 -112 120
-136 120 -8 0 13 -22 48 -48 50 -39 66 -58 80 -97 9 -26 30 -62 47 -79 47 -50
75 -142 69 -231 -3 -42 -10 -81 -17 -88 -12 -12 -14 -4 -12 48 2 29 1 29 -11
9 -48 -81 -50 -82 -102 -88 -106 -13 -216 38 -252 117 -10 20 -22 37 -27 37
-5 0 -8 -30 -5 -68 5 -88 26 -117 130 -182 45 -27 85 -51 89 -52 18 -6 21 -64
5 -81 -15 -15 -20 -15 -56 4 -27 14 -53 20 -82 17 l-42 -3 -8 45 c-10 55 -37
94 -69 98 -24 2 -24 2 2 -13 29 -16 44 -66 33 -109 -5 -23 -11 -26 -50 -26
-47 0 -131 -29 -176 -62 -21 -14 -38 -18 -61 -14 -18 3 -39 1 -47 -4 -13 -9
-12 -13 5 -26 28 -22 68 -13 176 39 86 42 95 44 123 33 27 -11 31 -18 34 -54
4 -47 -28 -118 -55 -126 -10 -2 -44 -10 -75 -17 -32 -7 -58 -16 -58 -21 0 -14
-59 -9 -90 7 -26 13 -30 21 -30 55 0 43 -9 50 -31 23 -8 -9 -29 -22 -47 -30
-29 -12 -36 -11 -73 7 -22 12 -63 45 -90 73 -46 48 -48 53 -30 61 16 7 30 1
66 -29 25 -20 48 -35 51 -32 3 2 -18 31 -45 62 -28 32 -48 61 -46 66 3 4 19
11 36 14 25 6 36 2 60 -21 16 -15 32 -24 36 -20 5 4 -3 16 -16 27 -26 22 -22
24 54 34 62 8 181 48 257 86 78 40 108 95 108 203 0 41 -4 77 -10 81 -5 3 -7
12 -4 19 6 17 -14 96 -29 114 -6 7 -12 27 -14 43 -4 42 -29 88 -72 132 -33 35
-35 39 -18 51 12 10 19 34 24 91 4 55 13 91 30 119 27 49 30 29 8 -54 -8 -30
-15 -71 -15 -90 1 -33 2 -34 15 -16 8 11 15 39 15 64 0 26 4 41 10 37 6 -3 10
-17 10 -30 0 -13 7 -30 15 -39 14 -14 13 -17 -14 -31 -30 -15 -51 -42 -51 -66
0 -7 12 1 28 18 24 29 35 33 111 42 46 5 88 14 94 20 8 8 5 11 -10 11 -54 0
-147 89 -160 151 -7 37 -13 39 93 -32z m-936 -68 c0 -5 -19 -12 -42 -16 -47
-8 -85 -24 -58 -25 8 0 29 4 47 9 22 6 37 6 47 -2 14 -11 12 -15 -14 -32 -16
-11 -32 -27 -35 -35 -4 -9 3 -6 17 7 69 63 163 70 232 18 27 -21 33 -44 16
-75 -6 -10 -6 -28 -2 -40 8 -20 10 -18 32 22 l23 44 -27 48 -27 48 38 -6 c21
-3 115 -15 208 -26 161 -20 215 -35 215 -61 0 -6 -11 -8 -29 -4 -43 9 -45 -9
-3 -29 63 -29 110 -67 132 -103 l20 -34 -38 6 -37 6 52 -33 c45 -29 52 -38 56
-73 2 -22 10 -66 18 -97 11 -50 11 -61 -5 -95 -19 -43 -61 -75 -135 -103 -61
-24 -167 -38 -158 -22 19 29 -25 56 -49 32 -8 -8 -15 -6 -24 5 -16 19 -29 19
-52 -2 -17 -15 -20 -15 -54 3 -52 27 -147 124 -168 173 l-19 41 27 40 c14 22
26 42 26 44 0 3 -15 0 -32 -5 -18 -5 -34 -9 -35 -9 -9 0 0 32 21 77 23 48 23
51 6 56 -14 3 -25 -8 -46 -47 -34 -62 -115 -150 -153 -166 -16 -6 -46 -10 -67
-8 l-39 3 3 43 c2 23 1 42 -3 42 -3 0 -15 -20 -26 -44 -14 -33 -26 -45 -46
-49 -16 -3 -33 0 -40 6 -20 20 -44 85 -33 92 15 9 12 25 -5 25 -18 0 -18 12
-4 82 14 67 44 120 104 182 38 38 43 47 24 41 -13 -4 -31 -13 -39 -20 -8 -6
-22 -16 -30 -20 -13 -8 -13 -7 -1 8 29 36 -3 15 -54 -36 -81 -80 -99 -127
-100 -264 0 -75 -3 -109 -10 -102 -5 6 -10 51 -9 102 2 187 91 316 253 368 60
19 131 25 131 10z m730 -45 c0 -14 -4 -27 -9 -31 -12 -7 -25 31 -16 45 11 18
25 10 25 -14z m1765 -402 c28 -11 -29 -34 -62 -25 -26 7 -27 8 -8 19 23 13 46
15 70 6z m-2895 -27 c0 -7 -16 -43 -35 -79 -60 -113 -75 -169 -76 -287 0 -67
-7 -132 -19 -176 -22 -87 -24 -62 -5 75 8 58 15 130 15 160 0 75 22 155 67
245 34 70 53 92 53 62z m3025 -7 c3 -6 -1 -7 -9 -4 -18 7 -21 14 -7 14 6 0 13
-4 16 -10z m0 -52 c52 -60 57 -73 40 -88 -13 -11 -24 -4 -66 38 -46 46 -49 52
-37 71 7 12 16 21 20 21 3 0 23 -19 43 -42z m76 -5 c14 -16 31 -36 38 -46 12
-15 12 -17 -5 -11 -23 9 -63 43 -75 67 -16 28 14 21 42 -10z m-2696 -43 c9
-28 -13 -175 -37 -245 -42 -123 -105 -215 -160 -234 -17 -6 -33 -9 -35 -7 -3
2 7 23 22 45 33 53 85 156 85 167 -1 5 -10 -9 -21 -31 -60 -117 -108 -155
-141 -113 -10 13 -20 44 -24 71 -4 31 -11 47 -21 47 -11 0 -13 -20 -10 -112 3
-62 10 -126 16 -141 9 -23 8 -29 -4 -34 -13 -4 -12 -10 8 -37 13 -17 37 -67
52 -111 15 -44 33 -91 41 -105 l13 -25 7 33 c12 58 43 19 42 -53 -1 -30 -1
-30 -5 -2 -4 28 -17 35 -28 17 -4 -6 -8 -84 -10 -173 -2 -89 -6 -175 -9 -192
-3 -16 -3 -24 0 -16 8 17 34 -52 34 -90 0 -15 7 -46 15 -69 8 -23 15 -44 15
-45 0 -2 -17 -6 -37 -10 -21 -3 -47 -9 -58 -11 -16 -4 -21 0 -22 16 -1 12 -18
58 -37 103 -19 45 -40 101 -47 125 -11 38 -29 58 -29 32 0 -5 -4 -10 -8 -10
-27 0 -121 322 -110 376 3 20 26 -22 108 -201 39 -84 106 -182 117 -171 3 3
-11 35 -31 71 -20 37 -43 99 -52 138 -15 75 -60 199 -99 277 -12 25 -25 56
-28 70 -7 30 4 81 17 77 10 -2 11 -1 30 108 7 44 21 106 31 138 24 82 16 102
-18 47 l-28 -45 4 90 c4 88 22 146 55 187 13 16 17 14 56 -18 l43 -35 -12 -47
c-20 -76 -28 -140 -16 -122 6 8 11 27 11 43 0 15 4 27 10 27 9 0 29 40 59 116
19 48 120 104 188 104 42 0 53 -3 58 -20z m1393 -6 c30 -8 98 -108 123 -182
11 -31 22 -88 24 -127 3 -38 2 -62 -1 -52 -7 22 -24 12 -24 -14 0 -10 -9 -28
-20 -39 -19 -19 -23 -19 -56 -5 -52 21 -70 48 -105 158 -31 97 -31 100 -16
150 9 29 19 67 22 85 7 33 13 36 53 26z m1406 -10 c11 -28 6 -38 -9 -18 -8 10
-15 22 -15 27 0 13 18 7 24 -9z m-424 -81 c0 -3 -7 -15 -17 -25 -16 -18 -73
-25 -73 -9 0 13 25 20 49 14 22 -6 30 12 9 20 -7 3 -3 6 10 6 12 1 22 -2 22
-6z m-366 -32 c6 -9 -27 -21 -59 -21 -20 1 -20 1 -1 15 22 17 52 20 60 6z
m426 0 c0 -15 -16 -22 -35 -15 -13 5 -14 8 -3 15 18 12 38 11 38 0z m68 -85
c18 -38 31 -74 29 -80 -2 -6 -25 21 -51 61 -44 65 -52 100 -23 90 7 -1 27 -34
45 -71z m-358 4 c36 -36 67 -80 56 -80 -16 0 -35 14 -30 21 3 6 -5 7 -21 3
-21 -5 -33 0 -56 22 -35 33 -36 40 -7 50 l21 6 -24 20 c-24 19 -24 19 -1 8 13
-6 41 -29 62 -50z m215 40 c-3 -5 -18 -10 -33 -10 -21 0 -24 2 -12 10 20 13
53 13 45 0z m95 -77 c52 -76 61 -116 20 -91 -11 7 -20 18 -20 24 0 6 -12 21
-26 35 -14 13 -34 38 -46 57 -16 26 -18 35 -8 47 17 20 22 15 80 -72z m-160
37 c-8 -5 -10 -10 -4 -10 5 0 15 5 21 11 16 16 26 7 89 -78 52 -71 55 -77 39
-89 -20 -15 -60 -1 -49 17 3 6 -8 24 -25 41 -18 17 -39 43 -48 59 -10 16 -28
30 -45 33 -35 7 -28 26 10 26 21 0 24 -2 12 -10z m13 -81 c30 -35 77 -105 77
-114 0 -3 -9 -5 -19 -5 -38 0 -109 85 -97 116 3 9 -1 14 -13 14 -10 0 -24 7
-31 15 -11 13 -8 15 21 11 22 -2 42 -14 62 -37z m-2018 -30 l30 -30 -40 7
c-36 6 -105 46 -105 61 0 3 19 3 43 -1 28 -5 52 -17 72 -37z m1738 6 c37 -36
46 -55 26 -55 -11 0 -89 75 -89 85 0 16 32 0 63 -30z m-841 -71 c-11 -53 -28
-54 -24 -2 2 24 6 50 8 58 11 31 24 -17 16 -56z m-128 15 c59 -39 68 -56 55
-101 -13 -48 -26 -57 -98 -69 -34 -6 -69 -18 -77 -26 -21 -22 -23 -15 -11 45
8 36 8 67 1 101 -10 49 -10 49 20 64 44 22 57 21 110 -14z m-787 -48 c16 -23
10 -24 -32 -7 -21 9 -34 20 -30 26 9 14 46 2 62 -19z m-245 -102 c21 -33 45
-59 53 -59 13 0 14 4 5 20 -19 35 -3 22 44 -36 46 -55 50 -57 46 -19 -2 16 0
17 14 6 9 -7 16 -18 16 -24 0 -6 7 -19 17 -29 9 -10 11 -18 6 -18 -6 0 -13 7
-17 15 -9 25 -29 18 -21 -7 3 -13 11 -69 16 -125 4 -56 15 -119 24 -139 18
-45 18 -45 0 -38 -10 4 -15 0 -15 -15 0 -12 -4 -21 -10 -21 -5 0 -7 6 -4 14
10 25 -25 278 -42 303 -23 36 -29 21 -16 -39 6 -29 16 -97 22 -151 10 -82 9
-101 -2 -115 -17 -20 -38 -89 -38 -122 0 -13 -7 -31 -16 -41 -23 -26 -71 -205
-90 -339 -10 -66 -20 -120 -23 -120 -4 0 -23 13 -42 30 -30 24 -37 38 -43 80
-4 27 -11 50 -17 50 -19 0 -40 72 -46 157 -4 59 0 127 12 218 18 130 18 135
-1 221 -10 49 -19 128 -19 175 0 85 0 87 36 126 20 22 49 62 65 88 24 43 29
46 38 30 6 -9 28 -44 48 -76z m1932 66 c14 -13 26 -30 26 -37 -1 -7 -10 -2
-21 12 -11 14 -28 31 -37 38 -9 6 -11 12 -5 12 5 0 22 -11 37 -25z m-412 -27
c-15 -15 -26 -4 -18 18 5 13 9 15 18 6 9 -9 9 -15 0 -24z m-1204 -22 c77 -71
180 -110 196 -73 3 8 15 1 33 -20 33 -37 58 -40 214 -26 l96 8 -5 -75 c-3 -52
-11 -83 -24 -103 -19 -27 -22 -27 -86 -21 -37 4 -79 13 -93 20 -33 17 -75 66
-94 110 -18 45 -55 48 -55 6 0 -16 -3 -32 -6 -35 -8 -8 -43 10 -70 37 -12 12
-39 35 -62 53 -33 27 -122 141 -122 158 0 17 38 -1 78 -39z m1391 11 c36 -7
66 -17 68 -22 1 -6 -18 -18 -43 -29 -55 -22 -52 -32 6 -16 50 14 70 2 67 -40
-2 -26 -7 -30 -50 -41 -26 -6 -50 -15 -53 -20 -8 -14 28 -10 56 6 32 18 40 18
40 1 0 -24 -56 -39 -130 -34 -39 3 -70 4 -70 1 0 -2 12 -8 26 -14 26 -9 26
-10 9 -29 -19 -21 -41 -28 -30 -10 4 6 -17 10 -55 10 -69 0 -120 21 -120 49 0
31 47 78 96 97 53 20 52 30 -3 15 -21 -6 -58 -27 -81 -47 -38 -32 -53 -36 -34
-8 17 25 146 127 171 134 36 11 56 11 130 -3z m191 -23 c0 -17 -26 -19 -36 -3
-7 12 15 31 28 23 4 -3 8 -12 8 -20z m-2482 -78 c-7 -25 -15 -46 -19 -46 -4 0
-3 17 2 38 15 55 19 65 25 60 2 -3 -1 -26 -8 -52z m2042 45 c0 -5 -25 -23 -55
-39 l-55 -30 -15 21 c-24 34 -20 48 11 37 19 -8 33 -6 52 4 32 16 62 20 62 7z
m-2013 -63 c-3 -8 -6 -5 -6 6 -1 11 2 17 5 13 3 -3 4 -12 1 -19z m805 3 c6
-15 87 -61 108 -61 12 0 37 -17 58 -39 20 -21 54 -51 75 -67 33 -23 38 -25 35
-9 -5 31 20 28 37 -4 24 -48 52 -61 136 -62 83 -2 144 8 174 26 16 11 31 10
79 -2 45 -12 64 -13 78 -4 48 30 32 -131 -25 -236 -10 -20 -27 -33 -44 -37
-26 -5 -236 -11 -274 -7 -10 0 -23 20 -34 49 -40 111 -73 177 -99 200 -18 16
-19 16 -11 -3 4 -11 24 -63 45 -115 21 -52 41 -103 45 -112 6 -15 2 -18 -23
-18 -53 0 -95 13 -99 30 -2 9 -33 34 -68 54 -106 62 -149 122 -158 221 -3 33
-17 88 -31 122 -14 35 -26 67 -26 73 0 12 17 13 22 1z m823 -18 c-5 -10 -11
-41 -14 -69 -7 -56 -26 -88 -48 -80 -8 3 -16 -1 -19 -9 -4 -8 -13 -15 -21 -15
-8 0 -11 4 -8 10 3 5 0 8 -7 6 -7 -3 -24 -7 -38 -10 l-25 -5 2 87 c2 87 2 87
30 93 15 4 57 7 92 8 57 1 62 -1 56 -16z m90 -198 c17 -76 20 -141 5 -150 -6
-4 -10 13 -11 42 -2 100 -16 96 -17 -5 -2 -109 -5 -122 -27 -122 -12 0 -14 14
-9 73 4 39 1 99 -5 131 -9 50 -8 63 4 82 8 13 15 43 15 66 0 24 3 54 7 68 6
19 9 7 15 -47 4 -40 14 -102 23 -138z m705 81 c0 -2 -12 -12 -27 -21 l-28 -18
19 21 c17 20 36 29 36 18z m-2449 -196 c13 -92 32 -159 76 -274 19 -48 32 -90
30 -93 -5 -5 -47 97 -89 217 -26 73 -31 101 -33 205 -2 66 -1 98 1 70 2 -27 9
-84 15 -125z m2334 121 c-15 -14 -113 -51 -133 -50 -9 1 1 7 23 14 22 7 56 20
75 29 41 18 47 19 35 7z m-535 -277 c0 -8 -6 -14 -14 -14 -8 0 -18 -10 -22
-22 l-6 -21 -14 24 -13 24 -1 -25 c0 -29 -41 -55 -59 -37 -8 8 -11 7 -11 -2 0
-7 -4 -10 -9 -7 -5 4 -11 0 -14 -6 -3 -9 -9 -7 -20 7 -13 16 -19 18 -38 8 -37
-18 -97 -27 -144 -21 -12 2 -23 -5 -30 -19 -5 -13 -13 -23 -17 -23 -5 0 -8 10
-9 23 0 21 -1 21 -11 -3 l-11 -25 -7 25 c-7 22 -8 22 -9 4 -1 -28 -7 -32 -36
-26 -17 3 -25 11 -26 26 -2 21 -2 21 -6 -1 -3 -15 -9 -20 -20 -16 -8 3 -28 6
-45 7 -16 1 -33 8 -38 16 -7 10 -10 11 -10 2 0 -9 -11 -11 -37 -6 -21 3 -47 7
-57 8 -11 2 -23 11 -27 22 -7 17 -8 17 -8 2 -1 -26 -21 -22 -21 3 0 23 -11 23
190 3 72 -7 77 2 9 15 -42 8 -42 9 -9 9 19 0 58 -3 85 -8 39 -6 43 -8 18 -9
-56 -2 -36 -16 22 -16 56 0 74 10 33 18 -13 2 2 4 32 4 47 1 50 -1 25 -8 -23
-6 -16 -7 29 -5 34 2 62 8 64 14 5 16 32 15 32 0 0 -7 5 -5 11 5 5 9 15 17 20
17 6 0 7 -5 4 -10 -7 -12 73 -3 90 10 14 10 78 30 88 27 5 -1 13 6 18 16 11
19 29 14 29 -9z m-843 -66 c-3 -8 -6 -5 -6 6 -1 11 2 17 5 13 3 -3 4 -12 1
-19z m43 15 c0 -5 -5 -15 -10 -23 -8 -12 -10 -11 -10 8 0 12 5 22 10 22 6 0
10 -3 10 -7z m872 -122 c27 -63 72 -211 66 -217 -2 -1 -15 -5 -31 -9 -24 -6
-26 -5 -20 11 7 18 6 18 -22 0 -17 -10 -43 -29 -60 -41 -40 -30 -131 -75 -150
-75 -25 0 -17 28 16 57 78 68 132 145 144 203 4 19 5 33 2 30 -14 -13 -156
-203 -160 -213 -7 -20 -14 -5 -21 44 -7 45 -6 46 17 42 60 -12 75 65 28 139
-26 41 -28 47 -13 53 11 4 22 -1 32 -15 8 -11 23 -31 33 -43 l18 -22 -4 35
c-2 19 -7 42 -11 51 -13 30 26 33 47 4 10 -14 28 -30 38 -36 18 -9 19 -7 13
18 -4 15 -13 36 -22 45 -8 10 -12 24 -7 35 6 16 8 16 23 -6 9 -14 29 -54 44
-90z m-1193 34 c-27 -55 -30 -54 -13 8 6 22 34 60 40 54 2 -1 -10 -30 -27 -62z
m-443 -159 c-4 -12 -76 134 -76 156 0 7 18 -23 40 -66 22 -44 39 -84 36 -90z
m441 82 c-26 -46 -52 -157 -62 -275 -6 -67 -15 -87 -29 -65 -7 11 30 255 45
301 9 28 52 79 67 81 2 0 -7 -19 -21 -42z m337 2 c-8 -49 3 -51 49 -10 23 20
45 30 66 30 30 0 31 -2 31 -41 0 -48 15 -44 24 6 9 46 20 44 41 -7 16 -42 81
-115 92 -104 3 3 -1 16 -9 28 -8 13 -24 44 -36 70 l-20 47 74 -2 c41 -1 74 -3
74 -5 0 -1 -9 -20 -20 -42 -39 -76 -15 -151 45 -136 21 5 25 3 25 -15 0 -19
-4 -21 -32 -16 -55 10 -78 16 -87 22 -15 9 -214 65 -231 65 -25 -1 59 -48 141
-80 42 -16 106 -32 142 -36 l65 -7 7 -49 c6 -44 26 -71 41 -55 4 4 23 204 24
255 0 6 4 12 9 12 6 0 12 -24 14 -52 l3 -53 2 59 c1 33 4 57 7 54 6 -5 34
-207 35 -240 0 -10 -7 -18 -15 -18 -10 0 -15 17 -18 68 l-3 67 -2 -76 -2 -76
-132 -51 c-73 -28 -169 -59 -213 -68 -44 -10 -94 -23 -110 -30 l-31 -12 -12
75 c-10 64 -17 81 -49 117 -20 22 -45 46 -56 52 -11 6 -26 25 -33 42 -10 25
-22 34 -58 44 -39 10 -48 18 -70 63 -28 54 -33 104 -14 123 19 19 25 14 32
-27 4 -28 17 -49 51 -80 24 -22 47 -41 50 -41 3 0 3 22 -1 49 -4 29 -1 63 6
85 11 35 13 36 61 36 l49 0 -6 -40z m430 -57 c-7 -40 -18 -60 -27 -46 -5 8 21
83 30 83 2 0 1 -17 -3 -37z m243 -20 c-3 -10 -5 -2 -5 17 0 19 2 27 5 18 2
-10 2 -26 0 -35z m-1581 -8 c20 -15 13 -18 -23 -9 -13 4 -23 10 -23 15 0 14
24 11 46 -6z m1391 -47 c-3 -7 -5 -2 -5 12 0 14 2 19 5 13 2 -7 2 -19 0 -25z
m110 0 c-3 -8 -6 -5 -6 6 -1 11 2 17 5 13 3 -3 4 -12 1 -19z m-1682 -8 c3 -5
2 -10 -4 -10 -5 0 -13 5 -16 10 -3 6 -2 10 4 10 5 0 13 -4 16 -10z m201 -66
l34 -6 -1 -67 c0 -50 -3 -60 -9 -43 -5 12 -14 22 -19 22 -5 0 -16 3 -24 6 -10
3 -17 -2 -20 -13 -3 -10 -5 7 -6 38 0 31 -3 72 -6 90 -5 33 -5 33 6 7 7 -20
20 -29 45 -34z m1361 -31 c-2 -16 -4 -5 -4 22 0 28 2 40 4 28 2 -13 2 -35 0
-50z m130 35 c-3 -7 -5 -2 -5 12 0 14 2 19 5 13 2 -7 2 -19 0 -25z m-746 -8
c13 -10 18 -19 11 -20 -16 0 -82 27 -82 34 0 14 50 4 71 -14z m-922 -33 c12
-30 2 -77 -15 -77 -10 0 -14 14 -14 50 0 53 14 66 29 27z m70 -35 c-1 -83 -18
-95 -18 -14 -1 46 3 71 9 67 6 -3 10 -27 9 -53z m481 -27 c67 -54 100 -89 100
-109 0 -6 -5 -5 -12 2 -24 24 -31 12 -24 -42 6 -52 -7 -116 -24 -116 -5 0 -16
10 -24 22 -9 12 -16 17 -16 10 0 -6 -6 -12 -14 -12 -7 0 -19 -7 -26 -15 -17
-20 -26 -19 -50 7 -20 22 -29 85 -10 73 17 -11 11 11 -8 28 -10 10 -22 14 -25
10 -4 -3 -7 -2 -7 3 0 13 -40 77 -45 72 -2 -2 9 -30 25 -62 33 -65 39 -123 15
-133 -9 -3 -23 1 -33 9 -9 8 -30 20 -47 27 -29 11 -30 13 -31 84 -1 39 1 66 3
60 9 -26 25 -12 21 17 -3 17 -1 30 4 30 4 0 9 -29 9 -65 1 -36 3 -69 4 -75 1
-5 3 -17 4 -25 0 -8 6 -15 11 -15 13 0 13 72 -1 145 -11 59 -10 60 17 82 23
18 72 37 107 42 4 1 39 -24 77 -54z m470 -7 c0 -6 -7 -5 -15 2 -8 7 -15 17
-15 22 0 6 7 5 15 -2 8 -7 15 -17 15 -22z m-95 -8 c13 0 25 6 28 13 2 6 7 -9
11 -35 9 -58 4 -67 -30 -60 -16 3 -29 -1 -35 -9 -6 -10 -9 -2 -9 22 0 20 -3
52 -6 70 -4 28 -3 31 6 17 6 -10 22 -18 35 -18z m-1038 -42 c-2 -13 -4 -3 -4
22 0 25 2 35 4 23 2 -13 2 -33 0 -45z m-52 12 c9 -15 -4 -50 -20 -50 -7 0 -15
14 -17 30 -4 24 -1 30 13 30 10 0 21 -5 24 -10z m1205 -94 c-1 -33 -3 -38 -11
-23 -6 9 -14 15 -20 12 -5 -4 -9 16 -9 47 l1 53 19 -24 c13 -15 20 -38 20 -65z
m40 -12 c0 -27 -4 -43 -10 -39 -5 3 -10 24 -10 46 0 21 5 39 10 39 6 0 10 -21
10 -46z m-332 -55 c-3 -20 -5 -19 -9 9 -3 20 -2 29 4 23 5 -5 7 -19 5 -32z
m-57 21 c16 0 20 -6 17 -27 -2 -23 -7 -27 -28 -25 -30 5 -26 1 -34 36 -6 24
-4 27 9 22 9 -3 26 -6 36 -6z"/>
<path d="M1859 4624 c-11 -14 -11 -18 5 -29 15 -11 16 -17 6 -35 -10 -18 -9
-24 1 -31 27 -17 49 -10 49 16 0 23 3 25 49 25 40 0 50 -3 54 -20 3 -12 14
-20 25 -20 30 0 35 15 12 35 -15 13 -17 22 -10 36 8 14 6 21 -9 29 -29 15 -41
12 -41 -10 0 -17 -7 -20 -46 -20 -37 0 -47 4 -51 20 -6 24 -26 26 -44 4z"/>
<path d="M1800 3918 c0 -7 10 -18 23 -24 12 -6 41 -21 65 -34 64 -34 136 -33
189 4 24 16 40 33 37 38 -4 5 -11 5 -18 -1 -8 -7 -34 -7 -76 -1 -36 5 -91 10
-122 10 -31 0 -60 5 -63 10 -9 14 -35 12 -35 -2z m239 -44 c27 -9 -6 -27 -45
-26 -46 2 -104 20 -104 33 0 9 116 3 149 -7z"/>
<path d="M1891 3811 c8 -11 18 -21 22 -21 5 0 7 -6 4 -14 -5 -11 8 -15 59 -18
40 -2 63 1 60 7 -2 6 3 18 12 28 18 20 10 33 -13 20 -15 -9 -86 -2 -133 12
-22 7 -23 6 -11 -14z"/>
<path d="M1845 3780 c-3 -5 1 -10 9 -10 9 0 16 5 16 10 0 6 -4 10 -9 10 -6 0
-13 -4 -16 -10z"/>
<path d="M1640 3550 c0 -5 7 -10 15 -10 8 0 15 5 15 10 0 6 -7 10 -15 10 -8 0
-15 -4 -15 -10z"/>
<path d="M1710 3537 c0 -17 61 -137 69 -137 3 0 12 4 19 9 11 7 5 22 -28 70
-45 66 -60 80 -60 58z"/>
<path d="M2053 3290 c-13 -5 -23 -16 -23 -25 0 -14 3 -14 25 1 14 9 25 20 25
25 0 5 -1 9 -2 8 -2 0 -13 -4 -25 -9z"/>
<path d="M2535 3140 c3 -5 8 -10 11 -10 2 0 4 5 4 10 0 6 -5 10 -11 10 -5 0
-7 -4 -4 -10z"/>
<path d="M2090 3110 c0 -13 11 -13 30 0 12 8 11 10 -7 10 -13 0 -23 -4 -23
-10z"/>
<path d="M2230 2818 c0 -4 7 -8 15 -8 8 0 15 4 15 8 0 5 -7 9 -15 9 -8 0 -15
-4 -15 -9z"/>
<path d="M1849 2584 c-20 -8 -42 -27 -48 -41 l-12 -26 34 29 c19 16 42 34 53
41 26 16 16 15 -27 -3z"/>
<path d="M1699 2490 c13 -11 27 -20 32 -20 18 0 8 10 -23 25 l-33 16 24 -21z"/>
<path d="M1518 3343 c12 -2 32 -2 45 0 12 2 2 4 -23 4 -25 0 -35 -2 -22 -4z"/>
<path d="M1186 3158 c3 -4 9 -8 15 -8 5 0 9 4 9 8 0 5 -7 9 -15 9 -8 0 -12 -4
-9 -9z"/>
<path d="M1020 3140 c0 -5 5 -10 10 -10 6 0 10 5 10 10 0 6 -4 10 -10 10 -5 0
-10 -4 -10 -10z"/>
<path d="M1160 3039 c0 -5 5 -7 10 -4 6 3 10 8 10 11 0 2 -4 4 -10 4 -5 0 -10
-5 -10 -11z"/>
<path d="M1972 2914 c-7 -8 -8 -14 -3 -14 10 0 25 19 20 25 -2 1 -10 -3 -17
-11z"/>
<path d="M783 2150 c2 -25 18 -31 26 -9 2 6 -1 9 -7 5 -6 -3 -13 2 -16 11 -3
11 -4 8 -3 -7z"/>
<path d="M931 2055 c1 -11 5 -33 9 -50 l8 -30 1 35 c0 19 -4 42 -9 50 -8 12
-10 11 -9 -5z"/>
<path d="M968 1540 c-12 -39 -10 -86 3 -73 5 5 9 30 7 54 -3 37 -4 40 -10 19z"/>
<path d="M2850 2310 c-21 -7 -21 -8 -5 -9 11 0 27 4 35 9 18 11 5 11 -30 0z"/>
<path d="M2114 1996 c-18 -14 -18 -15 -1 -33 17 -17 19 -17 31 0 7 9 18 17 25
17 17 0 13 17 -5 24 -22 9 -28 8 -50 -8z"/>
<path d="M1650 1890 c0 -5 5 -10 10 -10 6 0 10 5 10 10 0 6 -4 10 -10 10 -5 0
-10 -4 -10 -10z"/>
<path d="M1971 1848 c-1 -27 14 -46 27 -33 3 3 1 9 -5 13 -6 4 -13 16 -16 27
-4 16 -5 14 -6 -7z"/>
<path d="M2371 2044 c0 -11 3 -14 6 -6 3 7 2 16 -1 19 -3 4 -6 -2 -5 -13z"/>
<path d="M1646 1332 c-14 -23 80 -79 204 -123 60 -22 185 -28 203 -10 13 13 8
15 -103 40 -70 16 -161 47 -281 96 -10 3 -20 2 -23 -3z"/>
<path d="M1100 1275 c0 -15 18 -40 24 -34 3 3 -1 14 -9 25 -8 10 -14 15 -15 9z"/>
<path d="M1130 1065 c0 -8 4 -15 10 -15 5 0 7 7 4 15 -4 8 -8 15 -10 15 -2 0
-4 -7 -4 -15z"/>
<path d="M812 910 c-10 -28 -10 -29 9 -17 20 13 25 32 10 41 -5 3 -14 -7 -19
-24z"/>
</g>
</svg>
